<svg version="1.1" id="Capa_1" xmlns="http://www.w3.org/2000/svg" xmlns:xlink="http://www.w3.org/1999/xlink" x="0px" y="0px"
	 width="31.084px" height="31.084px" viewBox="0 0 31.084 31.084" style="enable-background:new 0 0 31.084 31.084;"
	 xml:space="preserve" fill="#5E81F4">
<g>
	<path d="M31.066,5.203l-1.762,0.272c-0.039,0.006-0.174,0.021-0.373,0.021c-0.798,0-1.928-0.23-2.779-1.331
		c-1.976-2.551-4.182-3.086-5.685-3.086c-1.976,0-3.723,0.882-4.927,1.711c-1.204-0.829-2.949-1.711-4.926-1.711
		c-1.503,0-3.709,0.536-5.684,3.087c-0.852,1.1-1.981,1.33-2.779,1.33c-0.199,0-0.334-0.016-0.357-0.019L0,5.156v24.556l1.259,0.225
		c0.062,0.012,0.398,0.066,0.894,0.066c1.212,0,3.5-0.327,5.195-2.518c0.99-1.278,2.126-1.9,3.473-1.9
		c1.796,0,3.364,1.077,3.802,1.407l0.919,0.692l0.919-0.692c0.902-0.681,2.375-1.408,3.803-1.408c1.348,0,2.482,0.622,3.473,1.901
		c2.388,3.085,5.875,2.488,6.088,2.449l1.26-0.226V6.98L31.066,5.203z M4.932,25.616c-0.563,0.729-1.248,1.074-1.876,1.227V8.493
		c1.255-0.164,2.958-0.732,4.292-2.457c0.99-1.279,2.059-1.901,3.268-1.901c1.679,0,3.272,1.184,3.907,1.718v17.546
		c-1.006-0.467-2.281-0.869-3.702-0.869C8.53,22.529,6.494,23.596,4.932,25.616z M28.027,26.841
		c-0.629-0.151-1.312-0.499-1.875-1.227c-1.563-2.021-3.6-3.087-5.889-3.087c-1.422,0-2.697,0.402-3.704,0.869V5.853
		c0.635-0.535,2.229-1.718,3.908-1.718c1.208,0,2.278,0.622,3.269,1.9c1.334,1.725,3.037,2.293,4.291,2.457V26.841z"/>
</g>
</svg>
