<svg version="1.1" id="Capa_1" xmlns="http://www.w3.org/2000/svg" xmlns:xlink="http://www.w3.org/1999/xlink" x="0px" y="0px"
	 width="31.512px" height="31.512px" viewBox="0 0 31.512 31.512" style="enable-background:new 0 0 31.512 31.512;"
	 xml:space="preserve" fill="#fff">
<g>
	<g>
		<path d="M28.057,4.256c0,0-4.058-2.776-12.338-2.776c-8.282,0-12.253,2.776-12.253,2.776v19.015H1.52v4.479h2.959v2.281h4.655
			V27.75h13.252v2.281h4.655V27.75H30v-4.479h-1.943V4.256z M15.718,4.466c4.622,0,7.738,0.955,9.352,1.621v17.183h-2.684h-1.994
			v-8.384h-9.267v8.384H9.134H6.452V6.076C8.042,5.415,11.122,4.466,15.718,4.466z M18.402,23.271h-5.283v-6.394h5.283V23.271z"/>
		<rect y="8.397" width="2.45" height="4.986"/>
		<rect x="29.061" y="8.397" width="2.451" height="4.986"/>
		<path d="M23.254,6.711H8.448v6.473h14.806V6.711z M21.262,11.192H10.44V8.703h10.822V11.192z"/>
		<circle cx="8.776" cy="17.332" r="1.577"/>
		<circle cx="22.719" cy="17.332" r="1.577"/>
		<path d="M14.189,18.846h3.135c0.275,0,0.498-0.223,0.498-0.498c0-0.273-0.223-0.496-0.498-0.496h-3.135
			c-0.275,0-0.498,0.223-0.498,0.496C13.691,18.625,13.914,18.846,14.189,18.846z"/>
		<path d="M14.189,20.496h3.135c0.275,0,0.498-0.223,0.498-0.496c0-0.275-0.223-0.498-0.498-0.498h-3.135
			c-0.275,0-0.498,0.223-0.498,0.498C13.692,20.273,13.914,20.496,14.189,20.496z"/>
		<path d="M14.189,22.301h3.135c0.275,0,0.498-0.224,0.498-0.498s-0.223-0.498-0.498-0.498h-3.135c-0.275,0-0.498,0.224-0.498,0.498
			C13.691,22.078,13.914,22.301,14.189,22.301z"/>
	</g>
</g>
</svg>
