<svg version="1.1" id="Capa_1" xmlns="http://www.w3.org/2000/svg" xmlns:xlink="http://www.w3.org/1999/xlink" x="0px" y="0px"
	 width="31.127px" height="31.127px" viewBox="0 0 31.127 31.127" style="enable-background:new 0 0 31.127 31.127;"
	 xml:space="preserve" fill="#fff">
<g>
	<g>
		<path d="M25.361,15.563V0.966H0v29.195h31.127V15.563H25.361z M22.361,27.161H3V3.966h19.361V27.161L22.361,27.161z
			 M28.205,27.239h-2.844v-8.754h2.844V27.239z"/>
		<path d="M5.724,8.523h5.859c0.552,0,1-0.448,1-1c0-0.552-0.448-1-1-1H5.724c-0.552,0-1,0.448-1,1
			C4.724,8.075,5.172,8.523,5.724,8.523z"/>
		<path d="M5.724,12.543h5.859c0.552,0,1-0.448,1-1s-0.448-1-1-1H5.724c-0.552,0-1,0.448-1,1S5.172,12.543,5.724,12.543z"/>
		<path d="M5.724,16.563h14.062c0.552,0,1-0.448,1-1c0-0.553-0.448-1-1-1H5.724c-0.552,0-1,0.448-1,1
			C4.724,16.115,5.172,16.563,5.724,16.563z"/>
		<path d="M5.724,20.583h14.062c0.552,0,1-0.448,1-1s-0.448-1-1-1H5.724c-0.552,0-1,0.448-1,1S5.172,20.583,5.724,20.583z"/>
		<path d="M5.724,24.603h14.062c0.552,0,1-0.447,1-1c0-0.552-0.448-1-1-1H5.724c-0.552,0-1,0.448-1,1
			C4.724,24.155,5.172,24.603,5.724,24.603z"/>
		<rect x="14.597" y="6.523" width="6.189" height="6.25"/>
	</g>
</g>
</svg>
