<svg version="1.1" id="Capa_1" xmlns="http://www.w3.org/2000/svg" xmlns:xlink="http://www.w3.org/1999/xlink" x="0px" y="0px"
	 width="30.972px" height="30.972px" viewBox="0 0 30.972 30.972" style="enable-background:new 0 0 30.972 30.972;"
	 xml:space="preserve" fill="#fff">
<g>
	<g>
		<path d="M2.63,0v30.972h25.712V0H2.63z M25.438,28.068H5.534V2.903h19.904V28.068z"/>
		<path d="M9.358,16.847h12.39c0.535,0,0.968-0.433,0.968-0.968c0-0.534-0.433-0.968-0.968-0.968H9.358
			c-0.535,0-0.968,0.434-0.968,0.968C8.39,16.414,8.823,16.847,9.358,16.847z"/>
		<path d="M9.358,12.567h3.862c0.535,0,0.968-0.433,0.968-0.968c0-0.534-0.433-0.968-0.968-0.968H9.358
			c-0.535,0-0.968,0.434-0.968,0.968C8.39,12.134,8.823,12.567,9.358,12.567z"/>
		<path d="M9.358,8.287h3.862c0.535,0,0.968-0.433,0.968-0.968c0-0.534-0.433-0.968-0.968-0.968H9.358
			c-0.535,0-0.968,0.434-0.968,0.968C8.39,7.854,8.823,8.287,9.358,8.287z"/>
		<path d="M9.358,21.127h12.39c0.535,0,0.968-0.434,0.968-0.969c0-0.533-0.433-0.967-0.968-0.967H9.358
			c-0.535,0-0.968,0.434-0.968,0.967C8.39,20.693,8.823,21.127,9.358,21.127z"/>
		<path d="M9.358,25.406h12.39c0.535,0,0.968-0.434,0.968-0.967c0-0.535-0.433-0.969-0.968-0.969H9.358
			c-0.535,0-0.968,0.434-0.968,0.969C8.39,24.973,8.823,25.406,9.358,25.406z"/>
		<path d="M17.479,12.288c0.189,0.189,0.438,0.284,0.686,0.284s0.495-0.094,0.686-0.284l1.078-1.078l1.076,1.078
			c0.189,0.189,0.438,0.284,0.686,0.284s0.494-0.094,0.685-0.284c0.378-0.378,0.378-0.99,0-1.369l-0.799-0.799
			c0.543-0.466,0.894-1.148,0.894-1.92c0-1.402-1.138-2.541-2.541-2.541c-1.402,0-2.541,1.138-2.541,2.541
			c0,0.771,0.352,1.454,0.895,1.92l-0.801,0.799C17.103,11.298,17.103,11.91,17.479,12.288z"/>
	</g>
</g>
</svg>
